<?xml version="1.0" standalone="no"?>
<!DOCTYPE svg PUBLIC "-//W3C//DTD SVG 20010904//EN"
 "http://www.w3.org/TR/2001/REC-SVG-20010904/DTD/svg10.dtd">
<svg version="1.0" xmlns="http://www.w3.org/2000/svg"
 width="512.000000pt" height="512.000000pt" viewBox="0 0 512.000000 512.000000"
 preserveAspectRatio="xMidYMid meet">
<metadata>
Created by potrace 1.14, written by Peter Selinger 2001-2017
</metadata>
<g transform="translate(0.000000,512.000000) scale(0.100000,-0.100000)"
fill="#000000" stroke="none">
<path d="M2469 4860 c-90 -15 -190 -83 -234 -158 -17 -28 -19 -28 -109 -29
-55 0 -107 -6 -131 -15 -39 -15 -41 -14 -87 18 -72 49 -136 67 -226 63 -165
-8 -289 -118 -322 -285 -12 -60 -12 -60 -60 -77 -62 -22 -147 -100 -185 -168
-21 -40 -29 -70 -33 -125 -4 -72 -5 -72 -48 -102 -54 -39 -97 -97 -125 -171
-17 -44 -20 -71 -17 -131 6 -95 31 -154 99 -225 l51 -54 -27 -33 c-33 -38 -50
-78 -65 -143 -7 -29 -72 -150 -177 -328 -92 -155 -175 -298 -185 -318 -17 -34
-18 -68 -16 -561 l3 -524 28 -42 c15 -23 46 -54 69 -69 41 -28 42 -28 240 -31
117 -2 198 -7 198 -13 0 -27 81 -828 86 -854 18 -87 86 -168 173 -209 46 -21
49 -21 1121 -21 591 0 1102 2 1135 4 33 2 92 3 132 2 59 -2 82 2 126 22 130
60 201 194 176 334 -12 65 -56 141 -101 177 -17 13 -39 46 -51 77 -24 62 -26
182 -4 369 l12 105 195 5 195 5 45 30 c31 21 54 47 73 84 l27 55 0 505 c0 473
-2 509 -19 546 -10 22 -96 170 -190 329 -102 172 -171 300 -171 315 0 49 -55
145 -112 195 l-54 48 28 56 c50 103 53 243 7 334 -34 66 -103 133 -169 162
-33 15 -60 29 -60 30 0 2 7 23 15 46 34 97 9 233 -59 323 -33 43 -114 99 -170
117 -61 20 -162 15 -229 -10 l-59 -22 -36 35 c-63 61 -135 91 -228 95 -77 4
-82 5 -94 30 -63 143 -225 229 -381 202z m138 -161 c58 -22 122 -108 123 -165
0 -12 10 -34 21 -49 20 -24 26 -26 68 -21 132 18 155 18 201 -6 32 -16 56 -40
83 -81 45 -68 75 -84 117 -62 16 8 32 19 35 25 4 6 25 20 47 31 33 17 55 20
103 17 105 -7 175 -72 183 -173 6 -74 -10 -112 -73 -177 -60 -62 -66 -84 -32
-122 26 -30 37 -32 99 -22 132 21 238 -69 238 -202 0 -98 -67 -202 -130 -202
-33 0 -122 -46 -154 -79 l-29 -30 -39 34 c-126 108 -300 108 -426 0 l-39 -34
-27 28 c-107 112 -313 112 -439 1 l-34 -29 -29 30 c-101 105 -302 110 -417 9
l-44 -39 -22 23 c-35 37 -115 76 -176 86 -97 16 -202 -16 -271 -81 l-30 -29
-28 29 c-44 46 -136 82 -229 90 -45 4 -95 15 -112 23 -85 45 -125 147 -93 239
19 55 47 86 109 119 33 17 64 40 69 50 6 12 8 46 4 85 -14 140 51 215 209 240
53 8 66 34 65 122 -1 63 2 77 28 119 37 60 97 94 166 94 60 0 109 -24 163 -79
47 -49 77 -52 142 -14 55 32 140 35 194 8 70 -37 118 -14 139 65 13 49 51 95
99 120 40 21 124 26 168 9z m-267 -1374 c33 -17 66 -54 79 -88 7 -17 11 -109
11 -221 0 -214 7 -248 51 -268 27 -12 29 -16 29 -72 l0 -58 -41 36 c-22 20
-51 41 -65 46 -14 6 -85 10 -159 10 -74 0 -136 4 -139 8 -2 4 -6 123 -8 263
l-3 255 28 37 c54 71 139 91 217 52z m1015 -13 c74 -61 78 -85 60 -338 -8
-115 -15 -221 -15 -236 l0 -28 -166 0 -167 0 7 238 c4 130 12 254 17 275 14
52 68 104 121 114 50 11 114 -1 143 -25z m-2008 11 c19 -9 46 -34 61 -55 24
-37 26 -51 42 -291 9 -139 14 -255 10 -260 -3 -4 -80 -6 -171 -5 l-164 3 -19
200 c-27 279 -15 343 73 402 41 28 117 31 168 6z m2781 -523 l50 -85 -60 -3
c-33 -2 -63 -1 -65 2 -3 3 -2 46 2 96 4 51 11 88 15 83 4 -4 31 -46 58 -93z
m-3164 4 c4 -47 5 -88 3 -91 -3 -2 -32 -3 -65 -1 l-61 3 51 88 c28 48 54 87
58 87 4 0 10 -39 14 -86z m1407 -270 c76 -82 181 -84 271 -5 l36 31 788 0 788
0 23 -22 23 -21 0 -486 c0 -484 0 -485 -22 -508 l-21 -23 -777 0 -776 0 -27
84 c-15 46 -37 96 -48 110 -62 79 -190 73 -246 -10 -10 -15 -30 -61 -44 -103
l-26 -76 -776 -3 c-766 -2 -777 -2 -797 18 -19 19 -20 33 -20 510 l0 489 22
21 c22 20 31 20 813 20 l792 0 24 -26z m139 -1173 l0 -230 -27 -13 c-51 -24
-53 -38 -53 -385 l0 -323 -125 0 -125 0 0 78 c0 82 -15 522 -25 735 l-6 127
124 0 c150 0 151 1 197 143 17 53 33 97 35 97 3 0 5 -103 5 -229z m-955 -23
c2 -7 16 -193 30 -413 14 -220 28 -426 31 -457 l6 -58 -94 0 c-98 0 -121 8
-160 55 -23 27 -23 29 -63 435 -19 195 -37 376 -41 403 l-6 47 146 0 c108 0
148 -3 151 -12z m1750 -55 c-3 -38 -10 -132 -15 -211 l-10 -143 -41 -54 c-40
-54 -69 -132 -69 -191 0 -45 26 -126 55 -168 15 -22 25 -51 25 -71 l0 -35
-130 0 -130 0 0 53 c0 68 18 584 26 755 l6 132 145 0 144 0 -6 -67z m414 -388
c32 -30 42 -47 53 -97 12 -55 18 -66 58 -96 62 -48 82 -82 82 -143 0 -83 -66
-149 -149 -149 -54 0 -92 19 -127 62 -56 70 -56 70 -118 63 -46 -5 -67 -2
-102 14 -127 56 -119 226 12 282 25 11 65 38 89 59 40 37 47 40 103 40 55 0
63 -3 99 -35z"/>
<path d="M1807 4226 c-22 -13 -63 -27 -92 -31 -82 -10 -93 -28 -93 -153 -1
-123 7 -135 96 -147 118 -15 137 -4 152 90 6 39 19 70 38 94 58 73 64 102 31
145 -27 34 -79 35 -132 2z"/>
<path d="M2749 4119 c-18 -7 -34 -28 -54 -70 -20 -44 -41 -70 -76 -97 -70 -52
-76 -89 -23 -151 39 -47 74 -42 140 18 66 61 122 77 207 59 86 -18 108 3 133
129 5 26 1 37 -19 57 -24 24 -32 26 -104 24 -53 -1 -87 3 -108 14 -45 23 -67
27 -96 17z"/>
<path d="M960 2438 c-52 -27 -78 -60 -90 -114 -5 -21 -10 -154 -10 -294 0
-140 5 -273 10 -294 12 -54 38 -87 90 -113 l44 -23 574 0 c542 0 575 1 610 19
95 48 101 74 101 411 0 339 -7 367 -104 411 -37 17 -78 19 -610 19 l-571 0
-44 -22z"/>
<path d="M2835 2441 c-48 -22 -69 -44 -90 -94 -12 -30 -15 -87 -15 -319 0
-320 4 -340 76 -394 l37 -29 587 -3 586 -2 44 23 c28 15 53 38 67 63 22 38 23
47 23 343 l0 304 -25 43 c-41 69 -84 84 -248 84 -150 0 -179 -8 -198 -51 l-11
-29 -99 0 c-96 0 -100 1 -109 24 -20 54 -32 56 -320 56 -236 0 -269 -2 -305
-19z"/>
<path d="M474 1006 c-28 -13 -66 -37 -86 -55 -30 -26 -44 -31 -86 -31 -111 0
-221 -72 -274 -177 -34 -70 -33 -177 3 -254 52 -111 146 -173 269 -175 58 -2
88 -8 134 -30 185 -85 393 27 426 231 6 39 18 92 26 119 59 203 -86 396 -299
396 -44 0 -77 -7 -113 -24z m185 -141 c76 -39 106 -117 76 -200 -10 -27 -19
-73 -20 -101 -3 -61 -28 -108 -73 -136 -41 -25 -109 -26 -152 -1 -90 52 -88
51 -136 41 -62 -13 -108 -3 -149 33 -64 56 -70 150 -14 214 40 45 83 58 163
50 68 -8 78 -3 117 52 39 55 129 79 188 48z"/>
<path d="M4445 1010 c-101 -40 -177 -144 -190 -259 -4 -31 -13 -78 -21 -105
-32 -113 -4 -219 81 -302 114 -112 293 -117 412 -11 33 29 45 34 91 35 222 4
361 224 272 430 -45 105 -153 174 -275 176 -53 1 -82 7 -120 26 -68 34 -179
38 -250 10z m182 -148 c17 -9 43 -26 58 -36 23 -17 32 -18 78 -7 86 19 157
-12 191 -83 9 -19 16 -47 16 -63 -1 -47 -35 -108 -75 -133 -33 -20 -45 -22
-113 -16 l-76 6 -45 -49 c-57 -61 -78 -71 -138 -71 -63 0 -109 28 -133 83 -25
54 -25 74 1 139 11 28 18 61 15 73 -7 29 10 87 36 120 42 53 126 70 185 37z"/>
</g>
</svg>
